<mxfile host="app.diagrams.net" modified="2024-06-26T16:00:51.121Z" agent="Mozilla/5.0 (Windows NT 10.0; Win64; x64) AppleWebKit/537.36 (KHTML, like Gecko) Chrome/126.0.0.0 Safari/537.36" etag="ZncyHxaXn6X_VR4RjBRg" version="24.5.2" type="github">
  <diagram name="Halaman-1" id="nMMUbtpKVea6kLmmHzla">
    <mxGraphModel dx="2206" dy="1206" grid="1" gridSize="10" guides="1" tooltips="1" connect="1" arrows="1" fold="1" page="1" pageScale="1" pageWidth="827" pageHeight="1169" math="0" shadow="0">
      <root>
        <mxCell id="0" />
        <mxCell id="1" parent="0" />
        <mxCell id="en2D4pxXU8tCWe9la0tf-2" value="&lt;font style=&quot;font-size: 19px;&quot;&gt;Id_Pengguna&lt;/font&gt;" style="ellipse;whiteSpace=wrap;html=1;" vertex="1" parent="1">
          <mxGeometry x="350" y="170" width="190" height="110" as="geometry" />
        </mxCell>
        <mxCell id="en2D4pxXU8tCWe9la0tf-10" style="rounded=0;orthogonalLoop=1;jettySize=auto;html=1;" edge="1" parent="1" source="en2D4pxXU8tCWe9la0tf-3" target="en2D4pxXU8tCWe9la0tf-9">
          <mxGeometry relative="1" as="geometry" />
        </mxCell>
        <mxCell id="en2D4pxXU8tCWe9la0tf-11" style="rounded=0;orthogonalLoop=1;jettySize=auto;html=1;" edge="1" parent="1" source="en2D4pxXU8tCWe9la0tf-3" target="en2D4pxXU8tCWe9la0tf-4">
          <mxGeometry relative="1" as="geometry" />
        </mxCell>
        <mxCell id="en2D4pxXU8tCWe9la0tf-12" style="rounded=0;orthogonalLoop=1;jettySize=auto;html=1;exitX=0;exitY=0;exitDx=0;exitDy=0;entryX=1;entryY=1;entryDx=0;entryDy=0;" edge="1" parent="1" source="en2D4pxXU8tCWe9la0tf-3" target="en2D4pxXU8tCWe9la0tf-2">
          <mxGeometry relative="1" as="geometry" />
        </mxCell>
        <mxCell id="en2D4pxXU8tCWe9la0tf-13" style="rounded=0;orthogonalLoop=1;jettySize=auto;html=1;" edge="1" parent="1" source="en2D4pxXU8tCWe9la0tf-3" target="en2D4pxXU8tCWe9la0tf-5">
          <mxGeometry relative="1" as="geometry" />
        </mxCell>
        <mxCell id="en2D4pxXU8tCWe9la0tf-15" style="rounded=0;orthogonalLoop=1;jettySize=auto;html=1;exitX=0;exitY=1;exitDx=0;exitDy=0;entryX=1;entryY=0;entryDx=0;entryDy=0;" edge="1" parent="1" source="en2D4pxXU8tCWe9la0tf-3" target="en2D4pxXU8tCWe9la0tf-8">
          <mxGeometry relative="1" as="geometry" />
        </mxCell>
        <mxCell id="en2D4pxXU8tCWe9la0tf-16" style="rounded=0;orthogonalLoop=1;jettySize=auto;html=1;entryX=0.5;entryY=0;entryDx=0;entryDy=0;" edge="1" parent="1" source="en2D4pxXU8tCWe9la0tf-3" target="en2D4pxXU8tCWe9la0tf-7">
          <mxGeometry relative="1" as="geometry" />
        </mxCell>
        <mxCell id="en2D4pxXU8tCWe9la0tf-37" style="rounded=0;orthogonalLoop=1;jettySize=auto;html=1;entryX=0;entryY=0.5;entryDx=0;entryDy=0;endArrow=none;endFill=0;" edge="1" parent="1" source="en2D4pxXU8tCWe9la0tf-3" target="en2D4pxXU8tCWe9la0tf-17">
          <mxGeometry relative="1" as="geometry" />
        </mxCell>
        <mxCell id="en2D4pxXU8tCWe9la0tf-38" value="&lt;font style=&quot;font-size: 19px;&quot;&gt;1&lt;/font&gt;" style="edgeLabel;html=1;align=center;verticalAlign=middle;resizable=0;points=[];" vertex="1" connectable="0" parent="en2D4pxXU8tCWe9la0tf-37">
          <mxGeometry x="-0.8811" y="-1" relative="1" as="geometry">
            <mxPoint as="offset" />
          </mxGeometry>
        </mxCell>
        <mxCell id="en2D4pxXU8tCWe9la0tf-3" value="&lt;font style=&quot;font-size: 23px;&quot;&gt;Pengguna&lt;/font&gt;" style="rounded=0;whiteSpace=wrap;html=1;" vertex="1" parent="1">
          <mxGeometry x="630" y="330" width="260" height="110" as="geometry" />
        </mxCell>
        <mxCell id="en2D4pxXU8tCWe9la0tf-4" value="&lt;font style=&quot;font-size: 19px;&quot;&gt;nama&lt;/font&gt;" style="ellipse;whiteSpace=wrap;html=1;" vertex="1" parent="1">
          <mxGeometry x="540" y="120" width="190" height="110" as="geometry" />
        </mxCell>
        <mxCell id="en2D4pxXU8tCWe9la0tf-5" value="&lt;font style=&quot;font-size: 19px;&quot;&gt;email&lt;/font&gt;&lt;span style=&quot;color: rgba(0, 0, 0, 0); font-family: monospace; font-size: 0px; text-align: start; text-wrap: nowrap;&quot;&gt;%3CmxGraphModel%3E%3Croot%3E%3CmxCell%20id%3D%220%22%2F%3E%3CmxCell%20id%3D%221%22%20parent%3D%220%22%2F%3E%3CmxCell%20id%3D%222%22%20value%3D%22%26lt%3Bfont%20style%3D%26quot%3Bfont-size%3A%2019px%3B%26quot%3B%26gt%3BId_Pengguna%26lt%3B%2Ffont%26gt%3B%22%20style%3D%22ellipse%3BwhiteSpace%3Dwrap%3Bhtml%3D1%3B%22%20vertex%3D%221%22%20parent%3D%221%22%3E%3CmxGeometry%20x%3D%22280%22%20y%3D%22220%22%20width%3D%22190%22%20height%3D%22110%22%20as%3D%22geometry%22%2F%3E%3C%2FmxCell%3E%3C%2Froot%3E%3C%2FmxGraphModel%3E&lt;/span&gt;" style="ellipse;whiteSpace=wrap;html=1;" vertex="1" parent="1">
          <mxGeometry x="260" y="287" width="190" height="110" as="geometry" />
        </mxCell>
        <mxCell id="en2D4pxXU8tCWe9la0tf-6" value="&lt;font style=&quot;font-size: 19px;&quot;&gt;kata_sandi&lt;/font&gt;" style="ellipse;whiteSpace=wrap;html=1;" vertex="1" parent="1">
          <mxGeometry x="260" y="420" width="190" height="110" as="geometry" />
        </mxCell>
        <mxCell id="en2D4pxXU8tCWe9la0tf-7" value="&lt;font style=&quot;font-size: 19px;&quot;&gt;tanggal_lahir&lt;/font&gt;" style="ellipse;whiteSpace=wrap;html=1;" vertex="1" parent="1">
          <mxGeometry x="620" y="520" width="190" height="110" as="geometry" />
        </mxCell>
        <mxCell id="en2D4pxXU8tCWe9la0tf-8" value="&lt;font style=&quot;font-size: 19px;&quot;&gt;jenis_kelamin&lt;/font&gt;" style="ellipse;whiteSpace=wrap;html=1;" vertex="1" parent="1">
          <mxGeometry x="400" y="520" width="190" height="110" as="geometry" />
        </mxCell>
        <mxCell id="en2D4pxXU8tCWe9la0tf-9" value="&lt;font style=&quot;font-size: 19px;&quot;&gt;tinggi_badan&lt;/font&gt;" style="ellipse;whiteSpace=wrap;html=1;" vertex="1" parent="1">
          <mxGeometry x="750" y="130" width="190" height="110" as="geometry" />
        </mxCell>
        <mxCell id="en2D4pxXU8tCWe9la0tf-14" style="rounded=0;orthogonalLoop=1;jettySize=auto;html=1;exitX=0;exitY=0.75;exitDx=0;exitDy=0;entryX=0.945;entryY=0.295;entryDx=0;entryDy=0;entryPerimeter=0;" edge="1" parent="1" source="en2D4pxXU8tCWe9la0tf-3" target="en2D4pxXU8tCWe9la0tf-6">
          <mxGeometry relative="1" as="geometry" />
        </mxCell>
        <mxCell id="en2D4pxXU8tCWe9la0tf-24" style="rounded=0;orthogonalLoop=1;jettySize=auto;html=1;entryX=0.5;entryY=1;entryDx=0;entryDy=0;" edge="1" parent="1" source="en2D4pxXU8tCWe9la0tf-17" target="en2D4pxXU8tCWe9la0tf-20">
          <mxGeometry relative="1" as="geometry" />
        </mxCell>
        <mxCell id="en2D4pxXU8tCWe9la0tf-25" style="rounded=0;orthogonalLoop=1;jettySize=auto;html=1;exitX=0.75;exitY=0;exitDx=0;exitDy=0;" edge="1" parent="1" source="en2D4pxXU8tCWe9la0tf-17" target="en2D4pxXU8tCWe9la0tf-18">
          <mxGeometry relative="1" as="geometry" />
        </mxCell>
        <mxCell id="en2D4pxXU8tCWe9la0tf-26" style="rounded=0;orthogonalLoop=1;jettySize=auto;html=1;exitX=1;exitY=0;exitDx=0;exitDy=0;entryX=0;entryY=1;entryDx=0;entryDy=0;" edge="1" parent="1" source="en2D4pxXU8tCWe9la0tf-17" target="en2D4pxXU8tCWe9la0tf-21">
          <mxGeometry relative="1" as="geometry" />
        </mxCell>
        <mxCell id="en2D4pxXU8tCWe9la0tf-27" style="rounded=0;orthogonalLoop=1;jettySize=auto;html=1;entryX=0;entryY=0.5;entryDx=0;entryDy=0;" edge="1" parent="1" source="en2D4pxXU8tCWe9la0tf-17" target="en2D4pxXU8tCWe9la0tf-19">
          <mxGeometry relative="1" as="geometry" />
        </mxCell>
        <mxCell id="en2D4pxXU8tCWe9la0tf-28" style="rounded=0;orthogonalLoop=1;jettySize=auto;html=1;exitX=1;exitY=1;exitDx=0;exitDy=0;entryX=0;entryY=0.5;entryDx=0;entryDy=0;" edge="1" parent="1" source="en2D4pxXU8tCWe9la0tf-17" target="en2D4pxXU8tCWe9la0tf-23">
          <mxGeometry relative="1" as="geometry" />
        </mxCell>
        <mxCell id="en2D4pxXU8tCWe9la0tf-29" style="rounded=0;orthogonalLoop=1;jettySize=auto;html=1;exitX=0.75;exitY=1;exitDx=0;exitDy=0;entryX=0;entryY=0;entryDx=0;entryDy=0;" edge="1" parent="1" source="en2D4pxXU8tCWe9la0tf-17" target="en2D4pxXU8tCWe9la0tf-22">
          <mxGeometry relative="1" as="geometry" />
        </mxCell>
        <mxCell id="en2D4pxXU8tCWe9la0tf-17" value="&lt;font style=&quot;font-size: 23px;&quot;&gt;Catatan_Kesehatan&lt;/font&gt;" style="rounded=0;whiteSpace=wrap;html=1;" vertex="1" parent="1">
          <mxGeometry x="1335" y="330" width="260" height="110" as="geometry" />
        </mxCell>
        <mxCell id="en2D4pxXU8tCWe9la0tf-18" value="&lt;font style=&quot;font-size: 19px;&quot;&gt;id_catatan&lt;/font&gt;" style="ellipse;whiteSpace=wrap;html=1;" vertex="1" parent="1">
          <mxGeometry x="1525" y="130" width="190" height="110" as="geometry" />
        </mxCell>
        <mxCell id="en2D4pxXU8tCWe9la0tf-19" value="&lt;font style=&quot;font-size: 19px;&quot;&gt;id_pengguna&lt;/font&gt;" style="ellipse;whiteSpace=wrap;html=1;" vertex="1" parent="1">
          <mxGeometry x="1735" y="320" width="190" height="110" as="geometry" />
        </mxCell>
        <mxCell id="en2D4pxXU8tCWe9la0tf-20" value="&lt;font style=&quot;font-size: 19px;&quot;&gt;tanggal&lt;/font&gt;" style="ellipse;whiteSpace=wrap;html=1;" vertex="1" parent="1">
          <mxGeometry x="1320" y="110" width="190" height="110" as="geometry" />
        </mxCell>
        <mxCell id="en2D4pxXU8tCWe9la0tf-21" value="&lt;font style=&quot;font-size: 19px;&quot;&gt;berat_badan&lt;/font&gt;" style="ellipse;whiteSpace=wrap;html=1;" vertex="1" parent="1">
          <mxGeometry x="1715" y="190" width="190" height="110" as="geometry" />
        </mxCell>
        <mxCell id="en2D4pxXU8tCWe9la0tf-22" value="&lt;font style=&quot;font-size: 19px;&quot;&gt;tekanan_darah_sistolek&lt;/font&gt;" style="ellipse;whiteSpace=wrap;html=1;" vertex="1" parent="1">
          <mxGeometry x="1515" y="550" width="230" height="110" as="geometry" />
        </mxCell>
        <mxCell id="en2D4pxXU8tCWe9la0tf-23" value="&lt;font style=&quot;font-size: 19px;&quot;&gt;tekanan_darah_distolik&lt;/font&gt;" style="ellipse;whiteSpace=wrap;html=1;" vertex="1" parent="1">
          <mxGeometry x="1655" y="450" width="230" height="110" as="geometry" />
        </mxCell>
        <mxCell id="en2D4pxXU8tCWe9la0tf-34" style="rounded=0;orthogonalLoop=1;jettySize=auto;html=1;exitX=1;exitY=1;exitDx=0;exitDy=0;" edge="1" parent="1" source="en2D4pxXU8tCWe9la0tf-30" target="en2D4pxXU8tCWe9la0tf-31">
          <mxGeometry relative="1" as="geometry" />
        </mxCell>
        <mxCell id="en2D4pxXU8tCWe9la0tf-35" style="rounded=0;orthogonalLoop=1;jettySize=auto;html=1;" edge="1" parent="1" source="en2D4pxXU8tCWe9la0tf-30" target="en2D4pxXU8tCWe9la0tf-32">
          <mxGeometry relative="1" as="geometry" />
        </mxCell>
        <mxCell id="en2D4pxXU8tCWe9la0tf-36" style="rounded=0;orthogonalLoop=1;jettySize=auto;html=1;exitX=0;exitY=1;exitDx=0;exitDy=0;" edge="1" parent="1" source="en2D4pxXU8tCWe9la0tf-30" target="en2D4pxXU8tCWe9la0tf-33">
          <mxGeometry relative="1" as="geometry" />
        </mxCell>
        <mxCell id="en2D4pxXU8tCWe9la0tf-30" value="&lt;font style=&quot;font-size: 23px;&quot;&gt;Sinkronisasi&lt;/font&gt;" style="rounded=0;whiteSpace=wrap;html=1;" vertex="1" parent="1">
          <mxGeometry x="995" y="610" width="260" height="110" as="geometry" />
        </mxCell>
        <mxCell id="en2D4pxXU8tCWe9la0tf-31" value="&lt;font style=&quot;font-size: 19px;&quot;&gt;id_sinkronisasi&lt;/font&gt;&lt;span style=&quot;color: rgba(0, 0, 0, 0); font-family: monospace; font-size: 0px; text-align: start; text-wrap: nowrap;&quot;&gt;%3CmxGraphModel%3E%3Croot%3E%3CmxCell%20id%3D%220%22%2F%3E%3CmxCell%20id%3D%221%22%20parent%3D%220%22%2F%3E%3CmxCell%20id%3D%222%22%20value%3D%22%26lt%3Bfont%20style%3D%26quot%3Bfont-size%3A%2019px%3B%26quot%3B%26gt%3Btekanan_darah_sistolek%26lt%3B%2Ffont%26gt%3B%22%20style%3D%22ellipse%3BwhiteSpace%3Dwrap%3Bhtml%3D1%3B%22%20vertex%3D%221%22%20parent%3D%221%22%3E%3CmxGeometry%20x%3D%221515%22%20y%3D%22550%22%20width%3D%22230%22%20height%3D%22110%22%20as%3D%22geometry%22%2F%3E%3C%2FmxCell%3E%3C%2Froot%3E%3C%2FmxGraphModel%3E&lt;/span&gt;" style="ellipse;whiteSpace=wrap;html=1;" vertex="1" parent="1">
          <mxGeometry x="1280" y="750" width="230" height="110" as="geometry" />
        </mxCell>
        <mxCell id="en2D4pxXU8tCWe9la0tf-32" value="&lt;font style=&quot;font-size: 19px;&quot;&gt;id_catatan&lt;/font&gt;" style="ellipse;whiteSpace=wrap;html=1;" vertex="1" parent="1">
          <mxGeometry x="1025" y="780" width="230" height="110" as="geometry" />
        </mxCell>
        <mxCell id="en2D4pxXU8tCWe9la0tf-33" value="&lt;font style=&quot;font-size: 19px;&quot;&gt;tanggal_sinkronisasi&lt;/font&gt;" style="ellipse;whiteSpace=wrap;html=1;" vertex="1" parent="1">
          <mxGeometry x="755" y="750" width="230" height="110" as="geometry" />
        </mxCell>
        <mxCell id="en2D4pxXU8tCWe9la0tf-39" value="&lt;font style=&quot;font-size: 19px;&quot;&gt;n&lt;/font&gt;" style="edgeLabel;html=1;align=center;verticalAlign=middle;resizable=0;points=[];" vertex="1" connectable="0" parent="1">
          <mxGeometry x="1300.9966666666667" y="382.0000000000001" as="geometry">
            <mxPoint x="4" as="offset" />
          </mxGeometry>
        </mxCell>
      </root>
    </mxGraphModel>
  </diagram>
</mxfile>
